<?xml version="1.0" encoding="UTF-8" ?>
<svg version="1.1" width="200" height="120" xmlns="http://www.w3.org/2000/svg" shape-rendering="crispEdges">
<rect x="0" y="0" width="8" height="8" fill="#B6E3FF" />
<rect x="8" y="0" width="8" height="8" fill="#B4E2FF" />
<rect x="16" y="0" width="8" height="8" fill="#BCE5FF" />
<rect x="24" y="0" width="8" height="8" fill="#B9E4FF" />
<rect x="32" y="0" width="8" height="8" fill="#ACDEFF" />
<rect x="40" y="0" width="8" height="8" fill="#BCE5FF" />
<rect x="48" y="0" width="8" height="8" fill="#BCE5FF" />
<rect x="56" y="0" width="8" height="8" fill="#BCE5FF" />
<rect x="64" y="0" width="8" height="8" fill="#A8DCFF" />
<rect x="72" y="0" width="8" height="8" fill="#BAE4FF" />
<rect x="80" y="0" width="8" height="8" fill="#BCE5FF" />
<rect x="88" y="0" width="8" height="8" fill="#BCE5FF" />
<rect x="96" y="0" width="8" height="8" fill="#BCE5FF" />
<rect x="104" y="0" width="8" height="8" fill="#BCE5FF" />
<rect x="112" y="0" width="8" height="8" fill="#B3E1FF" />
<rect x="120" y="0" width="8" height="8" fill="#BCE5FF" />
<rect x="128" y="0" width="8" height="8" fill="#BCE5FF" />
<rect x="136" y="0" width="8" height="8" fill="#BBE5FF" />
<rect x="144" y="0" width="8" height="8" fill="#BBE5FF" />
<rect x="152" y="0" width="8" height="8" fill="#AFDFFF" />
<rect x="160" y="0" width="8" height="8" fill="#B8E3FF" />
<rect x="168" y="0" width="8" height="8" fill="#BCE5FF" />
<rect x="176" y="0" width="8" height="8" fill="#BCE5FF" />
<rect x="184" y="0" width="8" height="8" fill="#BBE5FF" />
<rect x="192" y="0" width="8" height="8" fill="#B3E1FF" />
<rect x="0" y="8" width="8" height="8" fill="#AADDFF" />
<rect x="8" y="8" width="8" height="8" fill="#BBE4FF" />
<rect x="16" y="8" width="8" height="8" fill="#BBE5FF" />
<rect x="24" y="8" width="8" height="8" fill="#9DD8FF" />
<rect x="32" y="8" width="8" height="8" fill="#B6E2FF" />
<rect x="40" y="8" width="8" height="8" fill="#B9E4FF" />
<rect x="48" y="8" width="8" height="8" fill="#BBE5FF" />
<rect x="56" y="8" width="8" height="8" fill="#B5E2FF" />
<rect x="64" y="8" width="8" height="8" fill="#97D6FF" />
<rect x="72" y="8" width="8" height="8" fill="#BBE5FF" />
<rect x="80" y="8" width="8" height="8" fill="#BCE5FF" />
<rect x="88" y="8" width="8" height="8" fill="#BCE5FF" />
<rect x="96" y="8" width="8" height="8" fill="#BCE5FF" />
<rect x="104" y="8" width="8" height="8" fill="#BCE5FF" />
<rect x="112" y="8" width="8" height="8" fill="#B5E2FF" />
<rect x="120" y="8" width="8" height="8" fill="#BCE5FF" />
<rect x="128" y="8" width="8" height="8" fill="#BCE5FF" />
<rect x="136" y="8" width="8" height="8" fill="#ABDEFF" />
<rect x="144" y="8" width="8" height="8" fill="#B3E1FF" />
<rect x="152" y="8" width="8" height="8" fill="#9FD9FF" />
<rect x="160" y="8" width="8" height="8" fill="#BBE5FF" />
<rect x="168" y="8" width="8" height="8" fill="#ABDEFF" />
<rect x="176" y="8" width="8" height="8" fill="#BAE4FF" />
<rect x="184" y="8" width="8" height="8" fill="#B0E0FF" />
<rect x="192" y="8" width="8" height="8" fill="#AEDFFF" />
<rect x="0" y="16" width="8" height="8" fill="#BBE5FF" />
<rect x="8" y="16" width="8" height="8" fill="#BCE5FF" />
<rect x="16" y="16" width="8" height="8" fill="#ADDFFF" />
<rect x="24" y="16" width="8" height="8" fill="#A2DAFF" />
<rect x="32" y="16" width="8" height="8" fill="#BBE5FF" />
<rect x="40" y="16" width="8" height="8" fill="#A4DBFF" />
<rect x="48" y="16" width="8" height="8" fill="#BBE4FF" />
<rect x="56" y="16" width="8" height="8" fill="#A3DAFF" />
<rect x="64" y="16" width="8" height="8" fill="#9CD8FF" />
<rect x="72" y="16" width="8" height="8" fill="#BCE5FF" />
<rect x="80" y="16" width="8" height="8" fill="#BCE5FF" />
<rect x="88" y="16" width="8" height="8" fill="#BCE5FF" />
<rect x="96" y="16" width="8" height="8" fill="#BBE5FF" />
<rect x="104" y="16" width="8" height="8" fill="#BBE5FF" />
<rect x="112" y="16" width="8" height="8" fill="#BAE4FF" />
<rect x="120" y="16" width="8" height="8" fill="#BCE5FF" />
<rect x="128" y="16" width="8" height="8" fill="#BBE5FF" />
<rect x="136" y="16" width="8" height="8" fill="#B9E4FF" />
<rect x="144" y="16" width="8" height="8" fill="#A0D9FF" />
<rect x="152" y="16" width="8" height="8" fill="#B4E2FF" />
<rect x="160" y="16" width="8" height="8" fill="#BAE4FF" />
<rect x="168" y="16" width="8" height="8" fill="#95D5FF" />
<rect x="176" y="16" width="8" height="8" fill="#B9E3FF" />
<rect x="184" y="16" width="8" height="8" fill="#ABDEFF" />
<rect x="192" y="16" width="8" height="8" fill="#B3E1FF" />
<rect x="0" y="24" width="8" height="8" fill="#BCE5FF" />
<rect x="8" y="24" width="8" height="8" fill="#B8E3FF" />
<rect x="16" y="24" width="8" height="8" fill="#93D5FF" />
<rect x="24" y="24" width="8" height="8" fill="#B7E3FF" />
<rect x="32" y="24" width="8" height="8" fill="#B6E2FF" />
<rect x="40" y="24" width="8" height="8" fill="#A7DCFF" />
<rect x="48" y="24" width="8" height="8" fill="#B7E3FF" />
<rect x="56" y="24" width="8" height="8" fill="#92D4FF" />
<rect x="64" y="24" width="8" height="8" fill="#AADDFF" />
<rect x="72" y="24" width="8" height="8" fill="#BBE5FF" />
<rect x="80" y="24" width="8" height="8" fill="#AFDFFF" />
<rect x="88" y="24" width="8" height="8" fill="#B4E1FF" />
<rect x="96" y="24" width="8" height="8" fill="#B7E3FF" />
<rect x="104" y="24" width="8" height="8" fill="#B7E3FF" />
<rect x="112" y="24" width="8" height="8" fill="#BCE5FF" />
<rect x="120" y="24" width="8" height="8" fill="#B2E1FF" />
<rect x="128" y="24" width="8" height="8" fill="#BCE5FF" />
<rect x="136" y="24" width="8" height="8" fill="#AADDFF" />
<rect x="144" y="24" width="8" height="8" fill="#9ED9FF" />
<rect x="152" y="24" width="8" height="8" fill="#BBE5FF" />
<rect x="160" y="24" width="8" height="8" fill="#BAE4FF" />
<rect x="168" y="24" width="8" height="8" fill="#94D5FF" />
<rect x="176" y="24" width="8" height="8" fill="#B7E3FF" />
<rect x="184" y="24" width="8" height="8" fill="#A8DCFF" />
<rect x="192" y="24" width="8" height="8" fill="#B7E3FF" />
<rect x="0" y="32" width="8" height="8" fill="#BCE5FF" />
<rect x="8" y="32" width="8" height="8" fill="#B1E0FF" />
<rect x="16" y="32" width="8" height="8" fill="#99D7FF" />
<rect x="24" y="32" width="8" height="8" fill="#BBE5FF" />
<rect x="32" y="32" width="8" height="8" fill="#B9E3FF" />
<rect x="40" y="32" width="8" height="8" fill="#BBE4FF" />
<rect x="48" y="32" width="8" height="8" fill="#A0D9FF" />
<rect x="56" y="32" width="8" height="8" fill="#90D4FF" />
<rect x="64" y="32" width="8" height="8" fill="#B7E3FF" />
<rect x="72" y="32" width="8" height="8" fill="#B4E1FF" />
<rect x="80" y="32" width="8" height="8" fill="#AEDFFF" />
<rect x="88" y="32" width="8" height="8" fill="#BBE5FF" />
<rect x="96" y="32" width="8" height="8" fill="#ABDEFF" />
<rect x="104" y="32" width="8" height="8" fill="#ABDEFF" />
<rect x="112" y="32" width="8" height="8" fill="#BBE5FF" />
<rect x="120" y="32" width="8" height="8" fill="#A1DAFF" />
<rect x="128" y="32" width="8" height="8" fill="#BBE5FF" />
<rect x="136" y="32" width="8" height="8" fill="#9CD8FF" />
<rect x="144" y="32" width="8" height="8" fill="#B4E2FF" />
<rect x="152" y="32" width="8" height="8" fill="#BCE5FF" />
<rect x="160" y="32" width="8" height="8" fill="#B1E0FF" />
<rect x="168" y="32" width="8" height="8" fill="#91D4FF" />
<rect x="176" y="32" width="8" height="8" fill="#B7E3FF" />
<rect x="184" y="32" width="8" height="8" fill="#9ED8FF" />
<rect x="192" y="32" width="8" height="8" fill="#BAE4FF" />
<rect x="0" y="40" width="8" height="8" fill="#B4E1FF" />
<rect x="8" y="40" width="8" height="8" fill="#95D5FF" />
<rect x="16" y="40" width="8" height="8" fill="#A8DCFF" />
<rect x="24" y="40" width="8" height="8" fill="#BCE5FF" />
<rect x="32" y="40" width="8" height="8" fill="#BCE5FF" />
<rect x="40" y="40" width="8" height="8" fill="#A9DDFF" />
<rect x="48" y="40" width="8" height="8" fill="#90D3FF" />
<rect x="56" y="40" width="8" height="8" fill="#98D6FF" />
<rect x="64" y="40" width="8" height="8" fill="#BBE4FF" />
<rect x="72" y="40" width="8" height="8" fill="#9ED9FF" />
<rect x="80" y="40" width="8" height="8" fill="#AEDFFF" />
<rect x="88" y="40" width="8" height="8" fill="#BCE5FF" />
<rect x="96" y="40" width="8" height="8" fill="#A4DBFF" />
<rect x="104" y="40" width="8" height="8" fill="#A4DBFF" />
<rect x="112" y="40" width="8" height="8" fill="#BAE4FF" />
<rect x="120" y="40" width="8" height="8" fill="#A3DBFF" />
<rect x="128" y="40" width="8" height="8" fill="#B9E4FF" />
<rect x="136" y="40" width="8" height="8" fill="#9ED8FF" />
<rect x="144" y="40" width="8" height="8" fill="#BCE5FF" />
<rect x="152" y="40" width="8" height="8" fill="#BBE5FF" />
<rect x="160" y="40" width="8" height="8" fill="#99D7FF" />
<rect x="168" y="40" width="8" height="8" fill="#98D6FF" />
<rect x="176" y="40" width="8" height="8" fill="#BAE4FF" />
<rect x="184" y="40" width="8" height="8" fill="#98D6FF" />
<rect x="192" y="40" width="8" height="8" fill="#BBE4FF" />
<rect x="0" y="48" width="8" height="8" fill="#A7DCFF" />
<rect x="8" y="48" width="8" height="8" fill="#B4E1FF" />
<rect x="16" y="48" width="8" height="8" fill="#BBE4FF" />
<rect x="24" y="48" width="8" height="8" fill="#BBE4FF" />
<rect x="32" y="48" width="8" height="8" fill="#B6E3FF" />
<rect x="40" y="48" width="8" height="8" fill="#91D4FF" />
<rect x="48" y="48" width="8" height="8" fill="#90D4FF" />
<rect x="56" y="48" width="8" height="8" fill="#B0E0FF" />
<rect x="64" y="48" width="8" height="8" fill="#B5E2FF" />
<rect x="72" y="48" width="8" height="8" fill="#9CD7FF" />
<rect x="80" y="48" width="8" height="8" fill="#BBE4FF" />
<rect x="88" y="48" width="8" height="8" fill="#BAE4FF" />
<rect x="96" y="48" width="8" height="8" fill="#9BD7FF" />
<rect x="104" y="48" width="8" height="8" fill="#9BD7FF" />
<rect x="112" y="48" width="8" height="8" fill="#AFDFFF" />
<rect x="120" y="48" width="8" height="8" fill="#B5E2FF" />
<rect x="128" y="48" width="8" height="8" fill="#B3E1FF" />
<rect x="136" y="48" width="8" height="8" fill="#ADDEFF" />
<rect x="144" y="48" width="8" height="8" fill="#BCE5FF" />
<rect x="152" y="48" width="8" height="8" fill="#AFDFFF" />
<rect x="160" y="48" width="8" height="8" fill="#90D3FF" />
<rect x="168" y="48" width="8" height="8" fill="#A7DCFF" />
<rect x="176" y="48" width="8" height="8" fill="#B6E2FF" />
<rect x="184" y="48" width="8" height="8" fill="#9AD7FF" />
<rect x="192" y="48" width="8" height="8" fill="#BCE5FF" />
<rect x="0" y="56" width="8" height="8" fill="#BCE5FF" />
<rect x="8" y="56" width="8" height="8" fill="#BCE5FF" />
<rect x="16" y="56" width="8" height="8" fill="#B4E1FF" />
<rect x="24" y="56" width="8" height="8" fill="#B9E4FF" />
<rect x="32" y="56" width="8" height="8" fill="#9DD8FF" />
<rect x="40" y="56" width="8" height="8" fill="#90D3FF" />
<rect x="48" y="56" width="8" height="8" fill="#A5DBFF" />
<rect x="56" y="56" width="8" height="8" fill="#A9DDFF" />
<rect x="64" y="56" width="8" height="8" fill="#96D6FF" />
<rect x="72" y="56" width="8" height="8" fill="#B7E3FF" />
<rect x="80" y="56" width="8" height="8" fill="#BAE4FF" />
<rect x="88" y="56" width="8" height="8" fill="#9BD7FF" />
<rect x="96" y="56" width="8" height="8" fill="#A5DBFF" />
<rect x="104" y="56" width="8" height="8" fill="#A5DBFF" />
<rect x="112" y="56" width="8" height="8" fill="#A2DAFF" />
<rect x="120" y="56" width="8" height="8" fill="#BBE5FF" />
<rect x="128" y="56" width="8" height="8" fill="#A6DCFF" />
<rect x="136" y="56" width="8" height="8" fill="#B7E3FF" />
<rect x="144" y="56" width="8" height="8" fill="#B8E3FF" />
<rect x="152" y="56" width="8" height="8" fill="#97D6FF" />
<rect x="160" y="56" width="8" height="8" fill="#A6DCFF" />
<rect x="168" y="56" width="8" height="8" fill="#BAE4FF" />
<rect x="176" y="56" width="8" height="8" fill="#ACDEFF" />
<rect x="184" y="56" width="8" height="8" fill="#A2DAFF" />
<rect x="192" y="56" width="8" height="8" fill="#BCE5FF" />
<rect x="0" y="64" width="8" height="8" fill="#BCE5FF" />
<rect x="8" y="64" width="8" height="8" fill="#BAE4FF" />
<rect x="16" y="64" width="8" height="8" fill="#A2DAFF" />
<rect x="24" y="64" width="8" height="8" fill="#AEDFFF" />
<rect x="32" y="64" width="8" height="8" fill="#90D3FF" />
<rect x="40" y="64" width="8" height="8" fill="#9DD8FF" />
<rect x="48" y="64" width="8" height="8" fill="#BBE4FF" />
<rect x="56" y="64" width="8" height="8" fill="#B3E1FF" />
<rect x="64" y="64" width="8" height="8" fill="#9ED9FF" />
<rect x="72" y="64" width="8" height="8" fill="#BBE5FF" />
<rect x="80" y="64" width="8" height="8" fill="#9ED9FF" />
<rect x="88" y="64" width="8" height="8" fill="#A2DAFF" />
<rect x="96" y="64" width="8" height="8" fill="#BBE5FF" />
<rect x="104" y="64" width="8" height="8" fill="#BBE5FF" />
<rect x="112" y="64" width="8" height="8" fill="#ACDEFF" />
<rect x="120" y="64" width="8" height="8" fill="#B7E3FF" />
<rect x="128" y="64" width="8" height="8" fill="#99D7FF" />
<rect x="136" y="64" width="8" height="8" fill="#B9E4FF" />
<rect x="144" y="64" width="8" height="8" fill="#A0D9FF" />
<rect x="152" y="64" width="8" height="8" fill="#B6E3FF" />
<rect x="160" y="64" width="8" height="8" fill="#BCE5FF" />
<rect x="168" y="64" width="8" height="8" fill="#B8E3FF" />
<rect x="176" y="64" width="8" height="8" fill="#93D5FF" />
<rect x="184" y="64" width="8" height="8" fill="#ADDEFF" />
<rect x="192" y="64" width="8" height="8" fill="#BCE5FF" />
<rect x="0" y="72" width="8" height="8" fill="#BCE5FF" />
<rect x="8" y="72" width="8" height="8" fill="#A9DDFF" />
<rect x="16" y="72" width="8" height="8" fill="#B5E2FF" />
<rect x="24" y="72" width="8" height="8" fill="#95D5FF" />
<rect x="32" y="72" width="8" height="8" fill="#93D4FF" />
<rect x="40" y="72" width="8" height="8" fill="#B7E3FF" />
<rect x="48" y="72" width="8" height="8" fill="#BCE5FF" />
<rect x="56" y="72" width="8" height="8" fill="#B0E0FF" />
<rect x="64" y="72" width="8" height="8" fill="#B1E0FF" />
<rect x="72" y="72" width="8" height="8" fill="#B3E1FF" />
<rect x="80" y="72" width="8" height="8" fill="#96D6FF" />
<rect x="88" y="72" width="8" height="8" fill="#BAE4FF" />
<rect x="96" y="72" width="8" height="8" fill="#BCE5FF" />
<rect x="104" y="72" width="8" height="8" fill="#BCE5FF" />
<rect x="112" y="72" width="8" height="8" fill="#B7E3FF" />
<rect x="120" y="72" width="8" height="8" fill="#A9DDFF" />
<rect x="128" y="72" width="8" height="8" fill="#A4DBFF" />
<rect x="136" y="72" width="8" height="8" fill="#BAE4FF" />
<rect x="144" y="72" width="8" height="8" fill="#B8E3FF" />
<rect x="152" y="72" width="8" height="8" fill="#BBE5FF" />
<rect x="160" y="72" width="8" height="8" fill="#ACDEFF" />
<rect x="168" y="72" width="8" height="8" fill="#96D5FF" />
<rect x="176" y="72" width="8" height="8" fill="#91D4FF" />
<rect x="184" y="72" width="8" height="8" fill="#B5E2FF" />
<rect x="192" y="72" width="8" height="8" fill="#BCE5FF" />
<rect x="0" y="80" width="8" height="8" fill="#B8E3FF" />
<rect x="8" y="80" width="8" height="8" fill="#B3E1FF" />
<rect x="16" y="80" width="8" height="8" fill="#A6DBFF" />
<rect x="24" y="80" width="8" height="8" fill="#90D3FF" />
<rect x="32" y="80" width="8" height="8" fill="#AFE0FF" />
<rect x="40" y="80" width="8" height="8" fill="#BCE5FF" />
<rect x="48" y="80" width="8" height="8" fill="#B7E3FF" />
<rect x="56" y="80" width="8" height="8" fill="#A3DAFF" />
<rect x="64" y="80" width="8" height="8" fill="#BAE4FF" />
<rect x="72" y="80" width="8" height="8" fill="#9BD7FF" />
<rect x="80" y="80" width="8" height="8" fill="#B2E1FF" />
<rect x="88" y="80" width="8" height="8" fill="#BCE5FF" />
<rect x="96" y="80" width="8" height="8" fill="#BCE5FF" />
<rect x="104" y="80" width="8" height="8" fill="#BCE5FF" />
<rect x="112" y="80" width="8" height="8" fill="#BBE5FF" />
<rect x="120" y="80" width="8" height="8" fill="#A4DBFF" />
<rect x="128" y="80" width="8" height="8" fill="#B0E0FF" />
<rect x="136" y="80" width="8" height="8" fill="#BCE5FF" />
<rect x="144" y="80" width="8" height="8" fill="#BCE5FF" />
<rect x="152" y="80" width="8" height="8" fill="#B1E0FF" />
<rect x="160" y="80" width="8" height="8" fill="#95D5FF" />
<rect x="168" y="80" width="8" height="8" fill="#A9DDFF" />
<rect x="176" y="80" width="8" height="8" fill="#B9E3FF" />
<rect x="184" y="80" width="8" height="8" fill="#BCE5FF" />
<rect x="192" y="80" width="8" height="8" fill="#BCE5FF" />
<rect x="0" y="88" width="8" height="8" fill="#B9E4FF" />
<rect x="8" y="88" width="8" height="8" fill="#B6E3FF" />
<rect x="16" y="88" width="8" height="8" fill="#92D4FF" />
<rect x="24" y="88" width="8" height="8" fill="#A1DAFF" />
<rect x="32" y="88" width="8" height="8" fill="#BBE5FF" />
<rect x="40" y="88" width="8" height="8" fill="#BCE5FF" />
<rect x="48" y="88" width="8" height="8" fill="#ACDEFF" />
<rect x="56" y="88" width="8" height="8" fill="#BAE4FF" />
<rect x="64" y="88" width="8" height="8" fill="#A9DDFF" />
<rect x="72" y="88" width="8" height="8" fill="#A2DAFF" />
<rect x="80" y="88" width="8" height="8" fill="#BCE5FF" />
<rect x="88" y="88" width="8" height="8" fill="#BCE5FF" />
<rect x="96" y="88" width="8" height="8" fill="#BCE5FF" />
<rect x="104" y="88" width="8" height="8" fill="#BCE5FF" />
<rect x="112" y="88" width="8" height="8" fill="#BCE5FF" />
<rect x="120" y="88" width="8" height="8" fill="#A5DBFF" />
<rect x="128" y="88" width="8" height="8" fill="#B6E2FF" />
<rect x="136" y="88" width="8" height="8" fill="#BCE5FF" />
<rect x="144" y="88" width="8" height="8" fill="#BAE4FF" />
<rect x="152" y="88" width="8" height="8" fill="#9DD8FF" />
<rect x="160" y="88" width="8" height="8" fill="#B7E3FF" />
<rect x="168" y="88" width="8" height="8" fill="#BCE5FF" />
<rect x="176" y="88" width="8" height="8" fill="#BCE5FF" />
<rect x="184" y="88" width="8" height="8" fill="#BAE4FF" />
<rect x="192" y="88" width="8" height="8" fill="#ADDFFF" />
<rect x="0" y="96" width="8" height="8" fill="#BCE5FF" />
<rect x="8" y="96" width="8" height="8" fill="#A0D9FF" />
<rect x="16" y="96" width="8" height="8" fill="#9FD8FF" />
<rect x="24" y="96" width="8" height="8" fill="#BAE4FF" />
<rect x="32" y="96" width="8" height="8" fill="#BCE5FF" />
<rect x="40" y="96" width="8" height="8" fill="#BCE5FF" />
<rect x="48" y="96" width="8" height="8" fill="#BBE5FF" />
<rect x="56" y="96" width="8" height="8" fill="#B8E3FF" />
<rect x="64" y="96" width="8" height="8" fill="#98D6FF" />
<rect x="72" y="96" width="8" height="8" fill="#B9E4FF" />
<rect x="80" y="96" width="8" height="8" fill="#BCE5FF" />
<rect x="88" y="96" width="8" height="8" fill="#B9E3FF" />
<rect x="96" y="96" width="8" height="8" fill="#BBE5FF" />
<rect x="104" y="96" width="8" height="8" fill="#BBE5FF" />
<rect x="112" y="96" width="8" height="8" fill="#B9E4FF" />
<rect x="120" y="96" width="8" height="8" fill="#9ED8FF" />
<rect x="128" y="96" width="8" height="8" fill="#BBE5FF" />
<rect x="136" y="96" width="8" height="8" fill="#BBE5FF" />
<rect x="144" y="96" width="8" height="8" fill="#A4DBFF" />
<rect x="152" y="96" width="8" height="8" fill="#ADDFFF" />
<rect x="160" y="96" width="8" height="8" fill="#BCE5FF" />
<rect x="168" y="96" width="8" height="8" fill="#BCE5FF" />
<rect x="176" y="96" width="8" height="8" fill="#BCE5FF" />
<rect x="184" y="96" width="8" height="8" fill="#A4DBFF" />
<rect x="192" y="96" width="8" height="8" fill="#B9E4FF" />
<rect x="0" y="104" width="8" height="8" fill="#B5E2FF" />
<rect x="8" y="104" width="8" height="8" fill="#A5DCFF" />
<rect x="16" y="104" width="8" height="8" fill="#BBE5FF" />
<rect x="24" y="104" width="8" height="8" fill="#BCE5FF" />
<rect x="32" y="104" width="8" height="8" fill="#BCE5FF" />
<rect x="40" y="104" width="8" height="8" fill="#BCE5FF" />
<rect x="48" y="104" width="8" height="8" fill="#B4E2FF" />
<rect x="56" y="104" width="8" height="8" fill="#A5DBFF" />
<rect x="64" y="104" width="8" height="8" fill="#B9E4FF" />
<rect x="72" y="104" width="8" height="8" fill="#BCE5FF" />
<rect x="80" y="104" width="8" height="8" fill="#BCE5FF" />
<rect x="88" y="104" width="8" height="8" fill="#B2E1FF" />
<rect x="96" y="104" width="8" height="8" fill="#BCE5FF" />
<rect x="104" y="104" width="8" height="8" fill="#BCE5FF" />
<rect x="112" y="104" width="8" height="8" fill="#9ED9FF" />
<rect x="120" y="104" width="8" height="8" fill="#B3E1FF" />
<rect x="128" y="104" width="8" height="8" fill="#BCE5FF" />
<rect x="136" y="104" width="8" height="8" fill="#AEDFFF" />
<rect x="144" y="104" width="8" height="8" fill="#A1DAFF" />
<rect x="152" y="104" width="8" height="8" fill="#BBE5FF" />
<rect x="160" y="104" width="8" height="8" fill="#BCE5FF" />
<rect x="168" y="104" width="8" height="8" fill="#BCE5FF" />
<rect x="176" y="104" width="8" height="8" fill="#BAE4FF" />
<rect x="184" y="104" width="8" height="8" fill="#A7DCFF" />
<rect x="192" y="104" width="8" height="8" fill="#BCE5FF" />
<rect x="0" y="112" width="8" height="8" fill="#B2E0FF" />
<rect x="8" y="112" width="8" height="8" fill="#BBE5FF" />
<rect x="16" y="112" width="8" height="8" fill="#BCE5FF" />
<rect x="24" y="112" width="8" height="8" fill="#BCE5FF" />
<rect x="32" y="112" width="8" height="8" fill="#BCE5FF" />
<rect x="40" y="112" width="8" height="8" fill="#B9E4FF" />
<rect x="48" y="112" width="8" height="8" fill="#AADDFF" />
<rect x="56" y="112" width="8" height="8" fill="#BBE5FF" />
<rect x="64" y="112" width="8" height="8" fill="#BCE5FF" />
<rect x="72" y="112" width="8" height="8" fill="#BCE5FF" />
<rect x="80" y="112" width="8" height="8" fill="#B8E3FF" />
<rect x="88" y="112" width="8" height="8" fill="#B9E3FF" />
<rect x="96" y="112" width="8" height="8" fill="#B8E3FF" />
<rect x="104" y="112" width="8" height="8" fill="#B8E3FF" />
<rect x="112" y="112" width="8" height="8" fill="#B2E0FF" />
<rect x="120" y="112" width="8" height="8" fill="#BCE5FF" />
<rect x="128" y="112" width="8" height="8" fill="#BCE5FF" />
<rect x="136" y="112" width="8" height="8" fill="#A6DCFF" />
<rect x="144" y="112" width="8" height="8" fill="#B9E4FF" />
<rect x="152" y="112" width="8" height="8" fill="#BCE5FF" />
<rect x="160" y="112" width="8" height="8" fill="#BCE5FF" />
<rect x="168" y="112" width="8" height="8" fill="#BCE5FF" />
<rect x="176" y="112" width="8" height="8" fill="#A2DAFF" />
<rect x="184" y="112" width="8" height="8" fill="#B2E1FF" />
<rect x="192" y="112" width="8" height="8" fill="#BCE5FF" />
</svg>